<svg xmlns="http://www.w3.org/2000/svg" style="display:none" aria-hidden="true">
  <symbol id="icon-search" viewBox="0 0 24 24">
    <circle cx="11" cy="11" r="7" fill="none" stroke="currentColor" stroke-width="2"/>
    <path d="m20 20-3.5-3.5" fill="none" stroke="currentColor" stroke-width="2" stroke-linecap="round"/>
  </symbol>
  <symbol id="icon-home" viewBox="0 0 24 24">
    <path d="M4 10.5 12 3l8 7.5" fill="none" stroke="currentColor" stroke-width="2" stroke-linecap="round" stroke-linejoin="round"/>
    <path d="M6 9.5V20a1 1 0 0 0 1 1h4v-6h2v6h4a1 1 0 0 0 1-1V9.5" fill="none" stroke="currentColor" stroke-width="2" stroke-linecap="round" stroke-linejoin="round"/>
  </symbol>
  <symbol id="icon-archive" viewBox="0 0 24 24">
    <rect x="4" y="5" width="16" height="16" rx="2" fill="none" stroke="currentColor" stroke-width="2"/>
    <path d="M8 3v4M16 3v4M4 10h16" fill="none" stroke="currentColor" stroke-width="2" stroke-linecap="round"/>
  </symbol>
  <symbol id="icon-folder" viewBox="0 0 24 24">
    <path d="M3 7a2 2 0 0 1 2-2h4l2 3h8a2 2 0 0 1 2 2v8a2 2 0 0 1-2 2H5a2 2 0 0 1-2-2z" fill="none" stroke="currentColor" stroke-width="2" stroke-linejoin="round"/>
  </symbol>
  <symbol id="icon-tag" viewBox="0 0 24 24">
    <path d="M3 3h8l10 10-8 8L3 11z" fill="none" stroke="currentColor" stroke-width="2" stroke-linejoin="round"/>
    <circle cx="8" cy="8" r="1.6" fill="currentColor"/>
  </symbol>
  <symbol id="icon-user" viewBox="0 0 24 24">
    <circle cx="12" cy="8" r="4" fill="none" stroke="currentColor" stroke-width="2"/>
    <path d="M4 21c0-4 3.6-6 8-6s8 2 8 6" fill="none" stroke="currentColor" stroke-width="2" stroke-linecap="round"/>
  </symbol>
  <symbol id="icon-github" viewBox="0 0 24 24">
    <path fill="currentColor" d="M12 .5C5.65.5.5 5.65.5 12c0 5.08 3.29 9.39 7.86 10.91.58.11.79-.25.79-.56v-2.17c-3.2.7-3.87-1.36-3.87-1.36-.52-1.33-1.28-1.69-1.28-1.69-1.05-.72.08-.7.08-.7 1.16.08 1.77 1.19 1.77 1.19 1.03 1.77 2.7 1.26 3.36.96.1-.75.4-1.26.73-1.55-2.55-.29-5.24-1.28-5.24-5.69 0-1.26.45-2.29 1.19-3.09-.12-.29-.52-1.46.11-3.05 0 0 .97-.31 3.18 1.18a11.1 11.1 0 0 1 5.79 0c2.21-1.49 3.18-1.18 3.18-1.18.63 1.59.23 2.76.11 3.05.74.8 1.19 1.83 1.19 3.09 0 4.42-2.7 5.4-5.27 5.68.41.36.78 1.06.78 2.14v3.17c0 .31.21.67.8.56A11.5 11.5 0 0 0 23.5 12C23.5 5.65 18.35.5 12 .5z"/>
  </symbol>
  <symbol id="icon-mail" viewBox="0 0 24 24">
    <rect x="3" y="5" width="18" height="14" rx="2" fill="none" stroke="currentColor" stroke-width="2"/>
    <path d="m3 7 9 6 9-6" fill="none" stroke="currentColor" stroke-width="2" stroke-linecap="round" stroke-linejoin="round"/>
  </symbol>
  <symbol id="icon-link" viewBox="0 0 24 24">
    <path d="M10 14a5 5 0 0 0 7 0l3-3a5 5 0 0 0-7-7l-1 1" fill="none" stroke="currentColor" stroke-width="2" stroke-linecap="round" stroke-linejoin="round"/>
    <path d="M14 10a5 5 0 0 0-7 0l-3 3a5 5 0 0 0 7 7l1-1" fill="none" stroke="currentColor" stroke-width="2" stroke-linecap="round" stroke-linejoin="round"/>
  </symbol>
  <symbol id="icon-arrow-left" viewBox="0 0 24 24">
    <path d="M15 5l-7 7 7 7" fill="none" stroke="currentColor" stroke-width="2.2" stroke-linecap="round" stroke-linejoin="round"/>
  </symbol>
  <symbol id="icon-arrow-right" viewBox="0 0 24 24">
    <path d="M9 5l7 7-7 7" fill="none" stroke="currentColor" stroke-width="2.2" stroke-linecap="round" stroke-linejoin="round"/>
  </symbol>
  <symbol id="icon-arrow-up" viewBox="0 0 24 24">
    <path d="M12 19V5M6 11l6-6 6 6" fill="none" stroke="currentColor" stroke-width="2.2" stroke-linecap="round" stroke-linejoin="round"/>
  </symbol>
  <symbol id="icon-cat" viewBox="0 0 24 24">
    <path d="M4 10a8 8 0 0 1 16 0v4a5 5 0 0 1-5 5h-6a5 5 0 0 1-5-5z" fill="none" stroke="currentColor" stroke-width="2" stroke-linecap="round" stroke-linejoin="round"/>
    <path d="M7 6 5 2l4 3zM17 6l2-4-4 3z" fill="none" stroke="currentColor" stroke-width="2" stroke-linecap="round" stroke-linejoin="round"/>
    <circle cx="9.5" cy="12" r="1.2" fill="currentColor"/>
    <circle cx="14.5" cy="12" r="1.2" fill="currentColor"/>
    <path d="M10 15.5q2 1.6 4 0" fill="none" stroke="currentColor" stroke-width="1.8" stroke-linecap="round"/>
  </symbol>
  <symbol id="icon-dot" viewBox="0 0 24 24">
    <circle cx="12" cy="12" r="4" fill="none" stroke="currentColor" stroke-width="2"/>
  </symbol>
  <symbol id="icon-clock" viewBox="0 0 24 24">
    <circle cx="12" cy="12" r="9" fill="none" stroke="currentColor" stroke-width="2"/>
    <path d="M12 7v5l3 2" fill="none" stroke="currentColor" stroke-width="2" stroke-linecap="round" stroke-linejoin="round"/>
  </symbol>
  <symbol id="icon-star" viewBox="0 0 24 24">
    <path d="m12 2 3.09 6.26L22 9.27l-5 4.87 1.18 6.88L12 17.77l-6.18 3.25L7 14.14 2 9.27l6.91-1.01z" fill="none" stroke="currentColor" stroke-width="2" stroke-linecap="round" stroke-linejoin="round"/>
  </symbol>
  <symbol id="icon-rocket" viewBox="0 0 24 24">
    <path d="M4.5 16.5c-1.5 1.26-2 5-2 5s3.74-.5 5-2c.71-.84.7-2.13-.09-2.91a2.18 2.18 0 0 0-2.91-.09z" fill="none" stroke="currentColor" stroke-width="2" stroke-linecap="round" stroke-linejoin="round"/>
    <path d="m12 15-3-3a22 22 0 0 1 2-3.95A12.88 12.88 0 0 1 22 2c0 2.72-.78 7.5-6 11a22.35 22.35 0 0 1-4 2z" fill="none" stroke="currentColor" stroke-width="2" stroke-linecap="round" stroke-linejoin="round"/>
    <path d="M9 12H4s.55-3.03 2-4c1.62-1.08 5 0 5 0" fill="none" stroke="currentColor" stroke-width="2" stroke-linecap="round" stroke-linejoin="round"/>
    <path d="M12 15v5s3.03-.55 4-2c1.08-1.62 0-5 0-5" fill="none" stroke="currentColor" stroke-width="2" stroke-linecap="round" stroke-linejoin="round"/>
  </symbol>
  <symbol id="icon-file" viewBox="0 0 24 24">
    <path d="M15 2H6a2 2 0 0 0-2 2v16a2 2 0 0 0 2 2h12a2 2 0 0 0 2-2V7Z" fill="none" stroke="currentColor" stroke-width="2" stroke-linecap="round" stroke-linejoin="round"/>
    <path d="M14 2v4a2 2 0 0 0 2 2h4" fill="none" stroke="currentColor" stroke-width="2" stroke-linecap="round" stroke-linejoin="round"/>
  </symbol>
  <symbol id="icon-eye" viewBox="0 0 24 24">
    <path d="M2 12s3-7 10-7 10 7 10 7-3 7-10 7-10-7-10-7Z" fill="none" stroke="currentColor" stroke-width="2" stroke-linecap="round" stroke-linejoin="round"/>
    <circle cx="12" cy="12" r="3" fill="none" stroke="currentColor" stroke-width="2"/>
  </symbol>
  <symbol id="icon-pen" viewBox="0 0 24 24">
    <path d="M4 20l1-4L16.5 4.5a2.12 2.12 0 0 1 3 3L8 19z" fill="none" stroke="currentColor" stroke-width="2" stroke-linecap="round" stroke-linejoin="round"/>
    <path d="M13.5 6.5l4 4" fill="none" stroke="currentColor" stroke-width="2" stroke-linecap="round" stroke-linejoin="round"/>
  </symbol>
  <symbol id="icon-bilibili" viewBox="0 0 24 24">
    <path fill="currentColor" d="M17.813 4.653h.854c1.51.054 2.769.578 3.773 1.574 1.004.995 1.524 2.249 1.56 3.76v7.36c-.036 1.51-.556 2.769-1.56 3.773s-2.262 1.524-3.773 1.56H5.333c-1.51-.036-2.769-.556-3.773-1.56S.036 18.858 0 17.347v-7.36c.036-1.511.556-2.765 1.56-3.76 1.004-.996 2.262-1.52 3.773-1.574h.774l-1.174-1.12a1.234 1.234 0 0 1-.373-.906c0-.356.124-.658.373-.907l.027-.027c.267-.249.573-.373.92-.373.347 0 .653.124.92.373L9.653 4.44c.071.071.134.142.187.213h4.267a.836.836 0 0 1 .16-.213l2.853-2.747c.267-.249.573-.373.92-.373.347 0 .662.151.929.4.267.249.391.551.391.907 0 .355-.124.657-.373.906zM5.333 7.24c-.746.018-1.373.276-1.88.773-.506.498-.769 1.13-.786 1.894v7.52c.017.764.28 1.395.786 1.893.507.498 1.134.756 1.88.773h13.334c.746-.017 1.373-.275 1.88-.773.506-.498.769-1.129.786-1.893v-7.52c-.017-.765-.28-1.396-.786-1.894-.507-.497-1.134-.755-1.88-.773zM8 11.107c.373 0 .684.124.933.373.25.249.383.569.4.96v1.173c-.017.391-.15.711-.4.96-.249.25-.56.374-.933.374s-.684-.125-.933-.374c-.25-.249-.383-.569-.4-.96V12.44c0-.373.129-.689.386-.947.258-.257.574-.386.947-.386zm8 0c.373 0 .684.124.933.373.25.249.383.569.4.96v1.173c-.017.391-.15.711-.4.96-.249.25-.56.374-.933.374s-.684-.125-.933-.374c-.25-.249-.383-.569-.4-.96V12.44c.017-.391.15-.711.4-.96.249-.249.56-.373.933-.373Z"/>
  </symbol>
  <symbol id="icon-afdian" viewBox="0 0 24 24">
    <path d="M12 20s-7.5-4.6-9.5-9.2C1 7.6 3.6 4.5 7 4.5c2.2 0 4 1.2 5 3 1-1.8 2.8-3 5-3 3.4 0 6 3.1 4.5 6.3C19.5 15.4 12 20 12 20z" fill="none" stroke="currentColor" stroke-width="2" stroke-linejoin="round"/>
  </symbol>
  <symbol id="icon-x" viewBox="0 0 24 24">
    <path d="M4 4l16 16M20 4L4 20" fill="none" stroke="currentColor" stroke-width="2.4" stroke-linecap="round"/>
  </symbol>
  <symbol id="icon-book" viewBox="0 0 24 24">
    <path d="M2 3h6a4 4 0 0 1 4 4v14a3 3 0 0 0-3-3H2z" fill="none" stroke="currentColor" stroke-width="2" stroke-linecap="round" stroke-linejoin="round"/>
    <path d="M22 3h-6a4 4 0 0 0-4 4v14a3 3 0 0 1 3-3h7z" fill="none" stroke="currentColor" stroke-width="2" stroke-linecap="round" stroke-linejoin="round"/>
  </symbol>
</svg>
